<svg width="40" height="40" viewBox="0 0 40 40" fill="none" xmlns="http://www.w3.org/2000/svg">
<g clip-path="url(#clip0_1_183)">
<path d="M39.5439 11.5913C39.9775 10.5826 40.1052 9.46254 39.9129 8.352C39.9122 8.34786 39.9107 8.34395 39.9099 8.33989C39.9098 8.33887 39.9098 8.33793 39.9096 8.33692C39.8453 7.96997 39.7468 7.60872 39.6168 7.26333L39.4958 6.94176C39.4927 6.93356 39.4894 6.92543 39.4859 6.91739C37.6353 2.59989 32.9503 0.229341 28.3464 1.2809C28.0425 1.35036 27.7399 1.42543 27.4386 1.50442C25.0583 0.539497 22.5405 0.0489502 19.9511 0.0489502C15.8927 0.0489502 11.9868 1.26036 8.65578 3.55215C5.40266 5.79028 2.90656 8.90223 1.43711 12.5516C1.31672 12.8507 1.46148 13.1907 1.76055 13.3111C2.05969 13.4314 2.39961 13.2868 2.52008 12.9877C2.90047 12.043 3.35445 11.1368 3.8757 10.2752C5.72656 10.7142 7.70227 11.0772 9.76961 11.3557L8.26563 17.3938C8.20258 17.6472 8.27922 17.9183 8.46563 18.1013C8.48656 18.1218 8.50898 18.1406 8.53195 18.1582C8.53891 18.1636 8.54602 18.1685 8.55305 18.1736C8.57031 18.186 8.58805 18.1975 8.60617 18.2082C8.61367 18.2127 8.62102 18.2173 8.62867 18.2214C8.65312 18.2348 8.67805 18.2471 8.70375 18.2576C8.70453 18.2579 8.70531 18.2584 8.70609 18.2587C8.7325 18.2694 8.75961 18.278 8.78695 18.2856C8.79523 18.2879 8.80352 18.2897 8.81195 18.2918C8.83242 18.2967 8.85312 18.3007 8.87391 18.3039C8.88234 18.3051 8.89078 18.3066 8.89922 18.3075C8.92758 18.3109 8.95609 18.3131 8.98477 18.3131C8.98484 18.3131 8.98484 18.3131 8.98492 18.3131C8.98508 18.3131 8.98531 18.3131 8.98547 18.3131C9.04922 18.3131 9.11344 18.3048 9.17648 18.2879L9.95039 18.0798C9.9307 18.5003 9.91664 18.9233 9.90984 19.3493L9.90859 19.4259H1.17688C1.21242 18.2486 1.35648 17.0778 1.60781 15.9375C1.67719 15.6227 1.47828 15.3113 1.16336 15.2418C0.848672 15.1725 0.537188 15.3715 0.467656 15.6862C0.157422 17.0939 0 18.5453 0 20C0 22.6819 0.531797 25.2926 1.54219 27.7056C1.19766 28.1061 0.913203 28.5619 0.696172 29.0668C0.262578 30.0755 0.134922 31.1956 0.327188 32.3061C0.327891 32.3103 0.329375 32.3141 0.330156 32.3182C0.330312 32.3193 0.330313 32.3203 0.330469 32.3213C0.394766 32.6882 0.493281 33.0494 0.623281 33.3948L0.744297 33.7164C0.747422 33.7246 0.750703 33.7327 0.754141 33.7408C2.31047 37.3716 5.87055 39.6255 9.70187 39.6253C10.4265 39.6253 11.1615 39.5445 11.8937 39.3773C12.4759 39.2443 13.0534 39.0928 13.6257 38.925C15.6612 39.6053 17.7881 39.9511 19.9511 39.9511C23.8508 39.9511 27.6284 38.8257 30.8759 36.6968C34.0402 34.6222 36.5413 31.7111 38.109 28.2781C38.2429 27.9848 38.1137 27.6385 37.8205 27.5046C37.5272 27.3705 37.1809 27.4999 37.047 27.7931C36.5547 28.8711 35.9641 29.8941 35.2857 30.8518C33.7068 30.501 32.0383 30.2047 30.305 29.9668L31.9745 23.2643C32.0377 23.0107 31.9609 22.7397 31.7745 22.5567C31.588 22.3737 31.3153 22.3023 31.0634 22.3702L29.907 22.6812C29.9521 22.0087 29.9813 21.331 29.992 20.6507L29.9933 20.5741H38.7255C38.68 22.0848 38.4554 23.5792 38.0552 25.0243C37.9692 25.335 38.1513 25.6565 38.462 25.7425C38.5141 25.757 38.5666 25.7639 38.618 25.7639C38.8739 25.7639 39.1087 25.5943 39.1802 25.3357C39.6591 23.6062 39.902 21.811 39.902 19.9998C39.902 17.5961 39.4678 15.2324 38.6401 13.0163C39.0115 12.5999 39.3154 12.1227 39.5439 11.5913ZM38.4713 11.1301C38.3742 11.3561 38.2603 11.5693 38.1302 11.7689C37.6509 10.7112 37.0795 9.70043 36.4235 8.74278C36.4176 8.73411 36.4117 8.72543 36.4059 8.71676C36.3383 8.6184 36.2695 8.52075 36.2001 8.42356C36.1713 8.38317 36.1424 8.34293 36.1134 8.30278C36.0814 8.25872 36.0505 8.21411 36.0182 8.17028C36.9563 8.35372 37.8898 8.59489 38.8091 8.89145C38.8864 9.66465 38.7715 10.4322 38.4713 11.1301ZM25.5511 2.06551C25.5148 2.07762 25.4788 2.09043 25.4426 2.1027C25.3412 2.137 25.2398 2.17145 25.1389 2.20684C25.1235 2.21223 25.1082 2.21786 25.0928 2.22317C24.9581 2.27059 24.8236 2.31833 24.6897 2.36762C24.69 2.36747 24.6904 2.36739 24.6907 2.36723C24.4379 2.1009 24.1791 1.85747 23.9155 1.63551C24.4666 1.75395 25.0121 1.897 25.5511 2.06551ZM20.6155 1.26043C21.6204 1.42145 22.6039 1.95715 23.5235 2.82504C22.4969 3.25184 21.4953 3.73442 20.5254 4.26934V1.24598L20.6155 1.26043ZM19.2866 1.26051L19.3768 1.24606V4.93551C17.6612 5.98286 16.0591 7.19825 14.6082 8.55864C14.5848 8.58059 14.5613 8.6027 14.5379 8.62465C14.4563 8.70168 14.375 8.77895 14.2945 8.85692C14.2506 8.89926 14.2073 8.94184 14.1638 8.98442C14.0982 9.04864 14.0325 9.11262 13.9677 9.17747C13.8788 9.26606 13.791 9.35551 13.7034 9.44528C13.6829 9.46637 13.6618 9.48708 13.6413 9.50825L13.0984 8.08692C13.3081 7.5545 13.5313 7.04286 13.7687 6.55754C15.2789 3.46989 17.2386 1.58872 19.2866 1.26051ZM4.54266 9.2502C5.82687 7.41075 7.43758 5.80731 9.31734 4.51403C11.3486 3.11645 13.6073 2.14629 15.9852 1.6359C14.7706 2.65879 13.6616 4.1627 12.737 6.05293C12.6589 6.21254 12.5823 6.37465 12.507 6.53911L12.4171 6.30364C12.3735 6.18981 12.3048 6.09184 12.2185 6.01481C12.208 6.00543 12.1971 5.99684 12.1861 5.98809C12.182 5.98489 12.1782 5.98129 12.1741 5.97817C12.0364 5.87332 11.8629 5.81778 11.6804 5.82879C11.3559 5.84848 11.0852 6.07364 11.0066 6.38903L10.0488 10.2339C8.1293 9.97879 6.28406 9.64872 4.54266 9.2502ZM9.57383 16.9721L11.8113 7.98926L12.7935 10.5602C12.8855 10.8013 13.0917 10.9744 13.3451 11.0231C13.5988 11.072 13.8548 10.9874 14.0301 10.7972C14.144 10.6736 14.2593 10.5511 14.3757 10.4295C14.4348 10.3679 14.4949 10.3071 14.5546 10.2459C14.6107 10.1885 14.6663 10.1307 14.723 10.0736C14.8076 9.98872 14.8932 9.90458 14.979 9.82067C15.0099 9.79036 15.0405 9.75973 15.0717 9.7295C15.1769 9.62762 15.2829 9.52661 15.3898 9.42637C15.4002 9.41661 15.4105 9.40676 15.4209 9.397C18.2961 6.70879 21.8173 4.59489 25.6138 3.2777C25.6387 3.26903 25.6637 3.26083 25.6887 3.25231C25.8203 3.207 25.9521 3.16247 26.0844 3.11911C26.1388 3.10137 26.1934 3.08434 26.248 3.06684C26.3536 3.03293 26.4591 2.99887 26.5652 2.96622C26.6604 2.93692 26.7559 2.90895 26.8513 2.88067C26.9197 2.86043 26.9879 2.83934 27.0564 2.81965C27.5691 2.67184 28.0861 2.53809 28.6068 2.41918C32.6562 1.49426 36.7765 3.57426 38.4083 7.36583L38.4805 7.55739C37.2518 7.19997 36.0048 6.93895 34.7521 6.77418C34.7291 6.76825 34.7059 6.76325 34.6821 6.76012C28.4073 5.94809 22.2191 7.60465 17.0752 11.4349C17.0156 11.4792 16.9562 11.5237 16.8969 11.5686C16.8261 11.6222 16.7552 11.6755 16.685 11.73C16.5515 11.8331 16.4191 11.9379 16.2874 12.0437C16.247 12.0762 16.2069 12.109 16.1666 12.1418C16.0182 12.2627 15.8705 12.3847 15.7244 12.5091C15.5251 12.6789 15.4298 12.9446 15.4759 13.2026C15.522 13.461 15.7034 13.6777 15.9493 13.7682L18.2866 14.629L9.57383 16.9721ZM20.5253 25.2047V20.5742H28.8448L28.8434 20.6533C28.8305 21.4402 28.794 22.2232 28.7342 22.9968L20.5253 25.2047ZM20.5253 26.7474L23.1918 27.7294C23.1761 27.7421 23.1601 27.7543 23.1442 27.767C23.038 27.8518 22.9312 27.9351 22.8241 28.0179C22.7653 28.0632 22.7065 28.1086 22.6473 28.1535C22.5829 28.2023 22.518 28.2502 22.4532 28.2982C22.3209 28.3964 22.188 28.4935 22.0541 28.5887C22.045 28.5951 22.0361 28.6015 22.027 28.6079C21.695 28.8432 21.3578 29.0691 21.0162 29.2864C20.8783 29.2844 20.7405 29.2818 20.6026 29.2807L20.5253 29.28V26.7474ZM20.5253 19.4257V12.0175L20.6026 12.0169C23.0532 11.9972 25.4877 11.8661 27.8384 11.6268L27.9063 11.62L27.922 11.6863C28.4895 14.0767 28.7995 16.6539 28.8434 19.3466L28.8448 19.4257H20.5253ZM20.5253 10.8691V10.6C22.5273 9.49614 24.6623 8.6927 26.8571 8.22411C27.1252 8.91723 27.37 9.64575 27.5877 10.4067L27.6134 10.4964L27.5205 10.5056C25.2777 10.7272 22.9506 10.8493 20.6037 10.8686L20.5253 10.8691ZM28.8362 10.3622L28.7699 10.37L28.7521 10.3057C28.5305 9.50731 28.2805 8.74059 28.0052 8.00958C28.1059 7.99348 28.2067 7.97793 28.3077 7.96325C28.315 7.96215 28.3223 7.96106 28.3297 7.96004C30.2991 7.67676 32.3118 7.65629 34.3123 7.89465C34.3325 7.91856 34.3529 7.94231 34.3729 7.96637C34.417 8.01903 34.4605 8.07208 34.504 8.1252C34.5432 8.17317 34.5823 8.22122 34.6209 8.26942C34.6729 8.3345 34.7245 8.39997 34.7756 8.46567C34.8034 8.50137 34.8312 8.53708 34.8588 8.57293C34.9245 8.65848 34.9894 8.74465 35.0535 8.83122C35.0654 8.84731 35.0774 8.86325 35.0893 8.87926C35.1795 9.00208 35.2678 9.12598 35.355 9.25075C33.3098 9.71879 31.1212 10.0931 28.8362 10.3622ZM12.3938 29.6388L12.3293 29.645L12.3115 29.5827C11.5434 26.8937 11.1102 23.806 11.0587 20.6532L11.0573 20.5741H19.3769V29.2799L19.2996 29.2805C16.9693 29.2995 14.6458 29.42 12.3938 29.6388ZM19.0082 30.433C17.5471 31.1761 16.0216 31.7617 14.4589 32.1772C14.3728 32.2 14.2866 32.2223 14.2002 32.2441C14.1266 32.2627 14.0531 32.2812 13.9795 32.299C13.8492 32.3305 13.7187 32.3609 13.5879 32.39C13.544 32.3999 13.5002 32.4096 13.4563 32.4191C13.4096 32.4292 13.3629 32.4382 13.3162 32.448C13.1002 31.9389 12.8971 31.4074 12.7096 30.8575L12.6777 30.7641L12.776 30.7549C14.8047 30.5655 16.8999 30.4579 19.0082 30.433ZM12.1605 32.6594C12.0784 32.6723 11.9964 32.6857 11.9142 32.6976C11.8337 32.7093 11.7529 32.7197 11.6723 32.7304C11.6084 32.739 11.5444 32.7472 11.4804 32.7553C9.73813 32.9714 7.96531 32.9832 6.2 32.7937C6.17602 32.7679 6.15187 32.7422 6.12789 32.7163C6.08086 32.6653 6.0343 32.6139 5.98789 32.5625C5.93852 32.5077 5.88922 32.4526 5.84055 32.3973C5.79688 32.3478 5.75383 32.2978 5.71078 32.2479C5.66039 32.1893 5.61 32.1308 5.56031 32.0717C5.52227 32.0264 5.48484 31.9807 5.44727 31.9351C5.42719 31.9107 5.40719 31.8861 5.38719 31.8616C7.30164 31.4556 9.33555 31.1295 11.446 30.8926L11.5089 30.8855L11.5287 30.9456C11.7227 31.5372 11.9344 32.1095 12.1605 32.6594ZM11.0574 19.4257L11.0588 19.3466C11.0674 18.815 11.0869 18.2882 11.1162 17.7661L19.377 15.5443V19.4257H11.0574ZM19.377 12.0175V13.7863L17.0482 12.9288C17.0669 12.9137 17.0859 12.8992 17.1047 12.8841C17.2073 12.8022 17.3105 12.7217 17.4141 12.6417C17.4776 12.5927 17.5411 12.5438 17.6049 12.4955C17.6474 12.4633 17.6902 12.432 17.7329 12.4001C17.9149 12.2643 18.0991 12.1321 18.2843 12.0018C18.6223 12.0089 18.9608 12.0142 19.2997 12.0169L19.377 12.0175ZM1.17719 20.5742H9.90883L9.91008 20.6508C9.96031 23.8206 10.3878 26.9429 11.1462 29.6802L11.1705 29.7679L11.0802 29.7783C8.81328 30.0404 6.64297 30.4021 4.61859 30.8521C3.89414 29.8302 3.27297 28.7385 2.76336 27.5858C2.75984 27.5779 2.75539 27.5707 2.75156 27.563C1.78984 25.3773 1.25055 23.0115 1.17719 20.5742ZM1.76867 29.5279C1.86234 29.31 1.97148 29.104 2.09523 28.9109C2.57172 29.864 3.12594 30.7807 3.75492 31.6525C3.76797 31.6705 3.78117 31.6884 3.79422 31.7064C3.88 31.8244 3.96711 31.9417 4.05555 32.058C4.0807 32.0911 4.10609 32.1241 4.13156 32.1572C4.20969 32.2585 4.28875 32.3592 4.36891 32.4592C4.38672 32.4814 4.40383 32.5043 4.42172 32.5264C3.41695 32.3387 2.41648 32.0847 1.43094 31.7666C1.35359 30.9935 1.46867 30.2258 1.76867 29.5279ZM15.595 38.2754C15.662 38.2507 15.7287 38.2251 15.7955 38.2C15.8575 38.2552 15.9198 38.3087 15.9823 38.3614C15.853 38.3336 15.7236 38.3059 15.595 38.2754ZM17.0118 37.7124C17.8189 37.3684 18.6081 36.9911 19.3768 36.581V38.754L19.2867 38.7397C18.5091 38.615 17.7442 38.2659 17.0118 37.7124ZM20.6155 38.7395L20.5254 38.7539V35.9347C22.7615 34.6111 24.8061 33.0039 26.5987 31.15L26.848 31.8022C26.6254 32.3757 26.3866 32.9249 26.1334 33.4424C24.6232 36.5301 22.6635 38.4114 20.6155 38.7395ZM34.5181 31.8613C33.3045 33.3503 31.8636 34.6531 30.2356 35.7204C28.2982 36.9906 26.1598 37.8806 23.9186 38.3625C25.1324 37.3397 26.2408 35.8364 27.1649 33.9471C27.2592 33.7543 27.3511 33.5567 27.4415 33.3565L27.8228 34.3545C27.9387 34.658 28.2336 34.8482 28.5593 34.8293C28.8837 34.8098 29.1545 34.5848 29.2334 34.2691L30.0258 31.0878C31.5784 31.2982 33.0824 31.5569 34.5181 31.8613ZM30.6662 23.6861L28.4287 32.6689L27.4466 30.0981C27.3546 29.857 27.1484 29.6839 26.8951 29.6352C26.6415 29.5863 26.3854 29.6707 26.2101 29.8611C26.0955 29.9854 25.9796 30.1086 25.8627 30.2307C25.8405 30.2539 25.8178 30.2768 25.7955 30.2999C25.6961 30.4031 25.5961 30.5058 25.4948 30.6074C25.4811 30.6211 25.4673 30.6347 25.4536 30.6485C22.4974 33.604 18.8124 35.9041 14.7913 37.3234C14.7002 37.3554 14.6088 37.3867 14.5173 37.4178C14.4609 37.4371 14.4044 37.4565 14.3477 37.4754C14.224 37.5168 14.0999 37.5572 13.9755 37.5969C13.9512 37.6047 13.927 37.6125 13.9026 37.6202C13.7633 37.6643 13.6236 37.7074 13.4834 37.7494C12.8727 37.9327 12.2561 38.097 11.6337 38.2392C7.58414 39.1639 3.46406 37.0842 1.83227 33.2927L1.76008 33.1011C3.08961 33.4878 4.44039 33.7618 5.7968 33.923C5.81711 33.9276 5.83719 33.9332 5.85805 33.9357C6.79789 34.0456 7.735 34.1 8.66766 34.0999C9.83336 34.0998 10.9906 34.0133 12.1333 33.8452C12.1628 33.8409 12.1923 33.8366 12.2218 33.8322C12.321 33.8172 12.4201 33.8018 12.5191 33.7856C12.5749 33.7764 12.6306 33.7667 12.6866 33.7571C12.8283 33.7329 12.9697 33.7074 13.1109 33.6805C13.1567 33.6718 13.2026 33.6636 13.2483 33.6547C13.269 33.6506 13.2896 33.6461 13.3103 33.6419C13.4012 33.6239 13.492 33.6052 13.5827 33.5861C13.632 33.5757 13.6815 33.5648 13.7308 33.554C17.2067 32.7971 20.5129 31.26 23.4591 29.002C23.5023 28.969 23.5458 28.9362 23.5888 28.9029C23.6477 28.8572 23.7061 28.8108 23.7647 28.7645C23.8443 28.7017 23.9237 28.6383 24.0027 28.5745C24.0481 28.5378 24.0935 28.5011 24.1388 28.464C24.2654 28.3602 24.3915 28.2556 24.5164 28.1492C24.7156 27.9794 24.8109 27.7138 24.7649 27.4557C24.7189 27.1974 24.5376 26.9806 24.2915 26.89L21.9543 26.0293L30.6662 23.6861ZM38.7248 19.4257H29.9933L29.992 19.3491C29.9488 16.6271 29.6405 14.0122 29.0755 11.5769L29.0559 11.4924L29.142 11.482C31.5677 11.1903 33.8802 10.7853 36.0228 10.2772C37.688 13.0295 38.6255 16.1796 38.7248 19.4257Z" fill="black"/>
</g>
<defs>
<clipPath id="clip0_1_183">
<rect width="40" height="40" fill="white"/>
</clipPath>
</defs>
</svg>
