<svg width="44" height="44" viewBox="0 0 44 44" fill="none" xmlns="http://www.w3.org/2000/svg">
<path d="M43.7263 21.6563L36.7333 4.9188L29.9858 7.73801C30.0705 6.94219 30.0705 5.8162 29.6387 5.00346C28.6736 3.20018 26.4216 2.51443 24.6183 3.47956C22.815 4.4447 22.1293 6.69668 23.0944 8.49995C23.433 9.13491 23.941 9.65134 24.5675 9.99845L17.3544 13.0039C17.1935 12.4959 16.948 12.0134 16.6348 11.5816C16.7279 11.5308 16.8041 11.4716 16.8803 11.3954C17.0581 11.2176 17.1681 10.9805 17.1681 10.7265L17.1343 7.93273H17.71C17.8454 7.93273 17.9724 7.87346 18.0655 7.78034C18.1671 7.68721 18.2179 7.55175 18.2179 7.41629L18.1163 0L17.1004 0.0169322L17.1935 6.91679L3.6224 7.01839L3.52927 0L2.51334 0.0169322L2.60647 7.54329C2.61493 7.82267 2.83505 8.03432 3.11443 8.04279H3.70706C3.70706 8.06818 3.74092 10.8366 3.74092 10.8366C3.74939 11.1414 3.90178 11.4208 4.14729 11.5985L3.77479 12.1912C3.63086 12.4198 3.43614 12.987 3.43614 12.987H3.42768L1.94611 18.5153L2.33555 19.7175L1.78525 19.963C1.27729 20.1916 0.870917 20.6065 0.676196 21.1314C0.481476 21.6563 0.498409 22.232 0.726993 22.7399L8.25335 39.5536L15.3056 36.3957C15.5596 36.2857 15.7374 36.0486 15.7628 35.7692C15.7882 35.4898 15.6612 35.2189 15.4326 35.0665C14.5267 34.4316 13.9002 33.7458 13.714 33.1871C13.2399 31.7817 13.9934 30.2493 15.4072 29.7752C16.8126 29.3011 18.3449 30.0546 18.819 31.4685C19.0476 32.1373 18.9968 32.8738 18.6836 33.5088C18.5481 33.7797 18.5989 34.1014 18.8106 34.3131C19.0137 34.5332 19.3355 34.6009 19.6064 34.4739L25.4649 31.8494C25.7443 31.7309 25.9813 31.5277 26.1507 31.2737L27.0396 30.9097C27.1412 31.7478 27.4544 32.5436 27.9539 33.2294C27.8608 33.2802 27.7846 33.3479 27.7084 33.4241C27.5222 33.6019 27.4206 33.8474 27.4206 34.1014L27.4629 36.8868H26.8872C26.7518 36.8868 26.6248 36.946 26.5316 37.0391C26.43 37.1323 26.3792 37.2677 26.3877 37.4032L26.4808 43.7951H27.4968L27.4036 37.9111L40.9748 37.8011L41.0679 43.8035H42.0838L41.9907 37.2931C41.9823 37.0137 41.7621 36.7936 41.4828 36.7852H40.8901C40.8901 36.7682 40.8986 36.7428 40.8986 36.7259L40.8563 33.9998C40.8563 33.695 40.7039 33.4072 40.4499 33.2379C40.6446 32.9246 40.797 32.6876 40.8224 32.6368C40.9663 32.4167 41.0764 32.1711 41.1441 31.9087L41.161 31.8494H41.1695L42.6511 26.3126L42.1092 24.6025L42.6003 24.3993C43.667 23.959 44.175 22.7484 43.7347 21.6817C43.7347 21.6732 43.7263 21.6647 43.7263 21.6563ZM8.26181 17.0676L8.17715 17.2116C7.60146 18.2275 6.56013 18.6762 6.55166 18.6762L6.17916 18.8286C6.17916 18.8286 6.76332 22.3589 6.92417 23.3833C7.0173 23.9929 6.90724 24.6194 6.60246 25.1528C6.38234 25.466 6.02677 25.6523 5.64579 25.6523C5.38334 25.6438 5.27328 25.5083 5.23095 25.4321L3.58007 20.2763L3.26682 19.3027L3.00437 18.4899L4.43514 13.1648C4.47747 13.0124 4.5452 12.8685 4.62986 12.733C4.62986 12.733 4.89231 12.3097 5.18862 11.8525L15.4834 11.7679C15.9236 12.2335 16.2453 12.8007 16.4231 13.4188L8.26181 17.0676ZM15.966 10.7604H15.949V10.7435L4.9685 10.8281C4.89231 10.8366 4.82458 10.8112 4.76532 10.7689V10.6673L4.73145 8.11051C4.79072 8.07665 4.85845 8.05125 4.92617 8.05125L15.9236 7.96659C15.9998 7.95812 16.0676 7.98352 16.1268 8.02585L16.1691 10.7011C16.1099 10.735 16.0337 10.7604 15.966 10.7604ZM25.0501 30.9182L19.8604 33.2463C20.3599 31.2568 19.1577 29.2419 17.1681 28.7424C15.1786 28.2429 13.1637 29.4451 12.6642 31.4346C12.4864 32.1203 12.5203 32.8484 12.7404 33.5172C13.0282 34.3554 13.7986 35.1004 14.5013 35.6422L8.75285 38.2159L1.64133 22.3251C1.52281 22.0626 1.51434 21.7663 1.6244 21.4954C1.72599 21.2245 1.92918 21.0128 2.19163 20.8943L2.64033 20.6911L4.29968 25.8639C4.55367 26.3465 5.0447 26.6597 5.595 26.6682C5.595 26.6682 6.91571 26.6936 7.45754 25.6861V25.6692C7.88084 24.9242 8.0417 24.0606 7.90624 23.214C7.77925 22.4013 7.43214 20.2763 7.28821 19.4212C7.9655 19.0487 8.54119 18.5069 8.9645 17.8634L17.5576 14.0114C17.5576 14.0114 17.7946 13.8759 17.9809 13.9183C18.0909 13.9606 18.1925 14.0876 18.2433 14.1976L20.9017 20.2763C21.0117 20.5557 21.2911 20.725 21.5874 20.7081C21.8838 20.6911 22.1377 20.4879 22.2309 20.2086C22.4594 19.4381 23.0182 18.8201 23.7632 18.5153C25.0839 17.9227 26.6417 18.5069 27.2343 19.8276C27.7846 21.0467 27.3359 22.4775 26.1845 23.1632C25.448 23.5781 24.1611 23.4765 23.6447 23.4172C23.3738 23.3833 23.1029 23.5019 22.9335 23.722C22.9335 23.7304 22.688 24.0098 22.8489 24.4924L25.3633 30.0969C25.4564 30.3086 25.4226 30.5626 25.2787 30.7404C25.2279 30.8166 25.1432 30.8843 25.0501 30.9182ZM39.8403 34.1437L39.8827 36.7005C39.8234 36.7428 39.7557 36.7682 39.6795 36.7598L28.682 36.8444C28.6058 36.8529 28.5381 36.8275 28.4788 36.7852L28.4365 34.1522L39.8403 34.1437ZM40.162 31.6462C40.1197 31.7986 40.052 31.9426 39.9673 32.078V32.0949C39.9673 32.0949 39.7133 32.5098 39.417 32.967L39.3154 33.1278H29.1985L29.1138 33.0431C28.4619 32.3489 28.0725 31.4431 28.0217 30.4864L35.3533 27.4301C35.1925 27.718 35.0401 28.0228 34.8961 28.3275L35.8189 28.7593C36.0052 28.3614 36.2084 27.972 36.42 27.5995C36.6317 27.2269 36.9195 26.9052 37.2497 26.6343C37.4952 26.4311 37.7577 26.2703 38.0455 26.1348L38.418 25.9824L38.3588 25.5845C38.3503 25.5761 38.3249 25.3898 38.2741 25.1104C38.1217 24.1961 37.8 22.215 37.673 21.4361C37.5799 20.8266 37.6899 20.2001 37.9947 19.6667C38.2148 19.3535 38.5704 19.1588 38.9514 19.1588C39.2138 19.1672 39.3239 19.3027 39.3662 19.3873L40.8563 24.0268L41.1695 25.0004L41.5928 26.3295L40.162 31.6462ZM42.795 22.8754C42.6849 23.1378 42.4733 23.3495 42.2108 23.4595L41.796 23.6373L40.289 18.9471C40.0351 18.4645 39.544 18.1598 39.0022 18.1428C37.6984 18.1767 37.1312 19.1334 37.1312 19.1334C36.7079 19.8784 36.547 20.7419 36.6825 21.5885C36.8095 22.4097 37.1566 24.5263 37.3005 25.3813C37.1058 25.4914 36.9195 25.6184 36.7417 25.7538L26.4131 30.0716C26.3877 29.9361 24.0341 24.6363 24.0341 24.6363C24.8723 24.6956 25.8374 24.6533 26.557 24.2723L26.8787 24.0776C27.2682 23.8151 27.6068 23.4849 27.8693 23.0955L27.9793 22.9262C28.1741 22.6045 28.318 22.2573 28.4111 21.8933C28.4196 21.8764 28.4196 21.8594 28.4196 21.8425H28.428C28.5212 21.5123 28.5635 21.1737 28.5635 20.8266C28.5635 20.4541 28.5042 20.0731 28.3942 19.7175C27.7846 17.7619 25.702 16.6782 23.7463 17.2878C22.8066 17.5841 22.0192 18.2444 21.562 19.1249L20.961 17.7788C20.7662 17.2962 19.4709 14.4516 19.1831 13.7913C19.1153 13.6643 19.0391 13.5373 18.946 13.4272L25.6427 10.6673C25.9221 10.5487 26.0914 10.2694 26.0745 9.97305C26.066 9.67674 25.8628 9.42276 25.5834 9.3381C24.1611 8.90633 23.3569 7.40783 23.7886 5.97706C23.831 5.8416 23.8818 5.71461 23.941 5.58762C24.2712 4.8934 24.8807 4.3685 25.6258 4.16532C26.8449 3.81821 28.1402 4.36004 28.7413 5.47756C29.1392 6.22258 29.0037 7.50096 28.9275 8.01739C28.8937 8.29677 29.0037 8.56768 29.2239 8.737C29.444 8.90633 29.7318 8.94866 29.9858 8.8386L36.183 6.24797L42.7865 22.0457C42.9051 22.3081 42.9051 22.6129 42.795 22.8754Z" fill="black"/>
<path d="M11.9092 39.7826L11.0064 40.2485L12.1789 42.5205L13.0817 42.0546L11.9092 39.7826Z" fill="black"/>
<path d="M4.85072 39.8234L3.67819 42.0953L4.58095 42.5612L5.75348 40.2893L4.85072 39.8234Z" fill="black"/>
<path d="M7.88324 41.2786L7.82077 43.8346L8.8364 43.8594L8.89886 41.3034L7.88324 41.2786Z" fill="black"/>
<path d="M33.3883 1.43387L32.4855 1.89978L33.6581 4.17172L34.5608 3.70581L33.3883 1.43387Z" fill="black"/>
<path d="M40.9888 1.46818L39.8163 3.74011L40.719 4.20602L41.8915 1.93408L40.9888 1.46818Z" fill="black"/>
<path d="M36.6744 0.109778L36.6119 2.66577L37.6276 2.69059L37.69 0.1346L36.6744 0.109778Z" fill="black"/>
</svg>
