<svg width="35" height="47" viewBox="0 0 35 47" fill="none" xmlns="http://www.w3.org/2000/svg">
<path d="M15.3702 23.3438C15.1774 23.3438 14.9847 23.27 14.8378 23.1231L11.0727 19.358C10.7783 19.0636 10.7783 18.5876 11.0727 18.2932C11.3671 17.9988 11.8431 17.9988 12.1375 18.2932L15.3702 21.526L22.3681 14.5281C22.6625 14.2337 23.1384 14.2337 23.4329 14.5281C23.7273 14.8225 23.7273 15.2984 23.4329 15.5929L15.9026 23.1231C15.7558 23.27 15.563 23.3438 15.3702 23.3438ZM33.8818 21.4371C34.8269 23.2971 34.683 26.2851 33.5558 28.2377C32.5143 30.0434 30.2884 31.5728 28.3132 31.9117L33.3939 40.7153C33.5332 40.9555 33.5279 41.2529 33.3818 41.4886C33.235 41.7243 32.9744 41.8674 32.6935 41.8433L27.3885 41.5059L25.0278 46.2681C24.9043 46.5173 24.6543 46.6777 24.3771 46.6867C24.3689 46.6867 24.3613 46.6867 24.353 46.6867C24.0857 46.6867 23.8357 46.5437 23.7017 46.3102L18.609 37.4908C18.1511 37.5865 17.6941 37.6512 17.2528 37.6512C16.8115 37.6512 16.3544 37.5864 15.8958 37.4916L10.8039 46.311C10.6691 46.5444 10.4198 46.6875 10.1518 46.6875C10.1442 46.6875 10.136 46.6875 10.1277 46.6875C9.8498 46.6785 9.5998 46.5181 9.47706 46.2688L7.11708 41.5067L1.81127 41.8441C1.52889 41.8636 1.26985 41.7251 1.12376 41.4894C0.977672 41.2537 0.972401 40.9562 1.11096 40.716L6.19236 31.9124C4.21794 31.5736 1.992 30.0449 0.94981 28.2399C-0.177467 26.2843 -0.320542 23.2971 0.62375 21.4378C1.34289 20.0229 1.34289 17.6306 0.62375 16.2141C-0.320542 14.3557 -0.177467 11.3692 0.94981 9.41506C2.07483 7.46548 4.5839 5.81937 6.6615 5.66651C8.25565 5.55054 10.3355 4.35097 11.2052 3.04674C12.3423 1.33812 14.999 0 17.2528 0C19.5066 0 22.1633 1.33812 23.3003 3.04598C24.1686 4.34947 26.2492 5.54979 27.8441 5.66575C29.9232 5.81787 32.4322 7.46398 33.5558 9.41356C34.6838 11.3692 34.8269 14.3557 33.8811 16.2134C33.1634 17.6298 33.1634 20.0214 33.8818 21.4371ZM14.4192 37.0367C13.0833 36.4855 11.8769 35.6143 11.2045 34.6052C10.5253 33.5856 9.10581 32.6383 7.7564 32.2136L3.11701 40.2514L7.5207 39.9713C7.82191 39.9487 8.10806 40.1166 8.24285 40.3885L10.2015 44.3403L14.4192 37.0367ZM31.3878 40.2522L26.7477 32.2144C25.3975 32.6383 23.9788 33.5864 23.3003 34.6052C22.6279 35.6143 21.4223 36.4855 20.0857 37.0367L24.3033 44.3411L26.262 40.3892C26.3968 40.1174 26.6822 39.9494 26.9849 39.972L31.3878 40.2522ZM32.5392 15.5311C33.2523 14.1297 33.1213 11.6726 32.253 10.1658C31.3818 8.65752 29.3117 7.284 27.7341 7.16879C25.6731 7.01743 23.1738 5.57313 22.0473 3.88109C21.1903 2.59342 18.9945 1.50605 17.2528 1.50605C15.511 1.50605 13.3152 2.59342 12.4583 3.88109C11.3287 5.57464 8.83096 7.01819 6.77069 7.16804C5.19385 7.28325 3.1253 8.65601 2.25329 10.1658C1.38506 11.6719 1.25253 14.129 1.96564 15.5311C2.90391 17.379 2.90391 20.2722 1.96564 22.1193C1.25253 23.5222 1.3843 25.9793 2.25329 27.4854C3.12454 28.9944 5.1931 30.3672 6.77069 30.4824C8.83171 30.6338 11.3302 32.0773 12.4575 33.7694C13.3152 35.0578 15.5118 36.1452 17.2528 36.1452C18.9938 36.1452 21.1903 35.0578 22.0473 33.7701C23.1731 32.0781 25.6716 30.6345 27.7341 30.4832C29.3132 30.368 31.3818 28.9952 32.2515 27.4869C33.1198 25.9808 33.2515 23.523 32.5392 22.1193C31.6017 20.2722 31.6017 17.379 32.5392 15.5311ZM29.3012 18.8256C29.3012 25.4688 23.896 30.874 17.2528 30.874C10.6096 30.874 5.2044 25.4688 5.2044 18.8256C5.2044 12.1824 10.6096 6.77722 17.2528 6.77722C23.896 6.77722 29.3012 12.1824 29.3012 18.8256ZM27.7951 18.8256C27.7951 13.0123 23.0661 8.28327 17.2528 8.28327C11.4394 8.28327 6.71044 13.0123 6.71044 18.8256C6.71044 24.639 11.4394 29.3679 17.2528 29.3679C23.0661 29.3679 27.7951 24.639 27.7951 18.8256Z" fill="black"/>
</svg>
