<svg width="36" height="47" viewBox="0 0 36 47" fill="none" xmlns="http://www.w3.org/2000/svg">
<path d="M29.2189 29.4929C28.9431 29.7476 28.6564 29.9953 28.3657 30.229C28.1144 30.431 28.075 30.7983 28.2768 31.0497C28.3919 31.193 28.5612 31.2674 28.7322 31.2674C28.8604 31.2674 28.9898 31.2252 29.0975 31.1386C29.4087 30.8881 29.7165 30.6225 30.0112 30.3495C30.2483 30.1306 30.2625 29.7613 30.0436 29.5248C29.8236 29.288 29.4549 29.2737 29.2189 29.4929Z" fill="black"/>
<path d="M19.3132 1.20945C19.3275 1.21031 19.3412 1.21088 19.3554 1.21088C19.6586 1.21088 19.9151 0.976343 19.9368 0.668853C19.9601 0.3474 19.7179 0.0681228 19.3965 0.0450397C18.5831 -0.0128105 17.7516 -0.0153753 16.936 0.0399101C16.6145 0.0615684 16.3711 0.339705 16.3928 0.661444C16.415 0.982897 16.6846 1.23539 17.0146 1.20432C17.7692 1.15331 18.5484 1.15445 19.3132 1.20945Z" fill="black"/>
<path d="M34.9755 16.5537C34.9926 16.5537 35.0103 16.5529 35.0279 16.5515C35.3494 16.5227 35.5859 16.2391 35.5574 15.918C35.4845 15.1026 35.3522 14.285 35.1659 13.488C35.0918 13.1745 34.7777 12.9779 34.4648 13.0528C34.1508 13.1263 33.9558 13.4404 34.0294 13.7541C34.2038 14.4979 34.3263 15.2611 34.3947 16.0223C34.4221 16.3255 34.6768 16.5537 34.9755 16.5537Z" fill="black"/>
<path d="M29.9805 6.01416C30.1315 6.01416 30.2826 5.95574 30.3971 5.83946C30.6228 5.60949 30.6194 5.23987 30.3891 5.01417C29.8038 4.43937 29.174 3.90191 28.5169 3.41659C28.257 3.2248 27.8922 3.28038 27.7007 3.53942C27.5092 3.79875 27.5645 4.16437 27.8238 4.35588C28.4371 4.8087 29.0252 5.31026 29.5718 5.84687C29.6853 5.95858 29.8329 6.01416 29.9805 6.01416Z" fill="black"/>
<path d="M34.3241 22.4365C34.3748 22.4499 34.425 22.4564 34.4751 22.4564C34.7327 22.4564 34.9687 22.284 35.0382 22.0227C35.2491 21.2327 35.4053 20.4194 35.5033 19.6052C35.5415 19.2852 35.3135 18.9945 34.9932 18.9563C34.6712 18.9193 34.3828 19.1467 34.344 19.4662C34.2528 20.2259 34.1069 20.9851 33.9109 21.7223C33.8277 22.0338 34.0129 22.3536 34.3241 22.4365Z" fill="black"/>
<path d="M32.7368 7.86028C32.5595 7.59155 32.1959 7.51802 31.928 7.69499C31.659 7.87253 31.5849 8.23474 31.7621 8.50376C32.185 9.14353 32.5652 9.81722 32.8918 10.5054C32.9915 10.716 33.2013 10.8389 33.4196 10.8389C33.5033 10.8389 33.5883 10.8209 33.6692 10.7824C33.9605 10.6442 34.0847 10.2963 33.9462 10.005C33.5963 9.2675 33.1893 8.54593 32.7368 7.86028Z" fill="black"/>
<path d="M31.6276 27.715C31.7297 27.7871 31.8471 27.8215 31.9634 27.8215C32.1469 27.8215 32.3276 27.7355 32.441 27.5742C32.9146 26.9022 33.3432 26.1932 33.7148 25.4668C33.8613 25.1798 33.7479 24.8281 33.4606 24.6814C33.1751 24.5349 32.8223 24.6486 32.6752 24.935C32.3287 25.613 31.9286 26.2747 31.4869 26.9016C31.3011 27.1652 31.3643 27.5292 31.6276 27.715Z" fill="black"/>
<path d="M6.7326 5.79702C7.2809 5.26297 7.87137 4.7637 8.48749 4.31315C8.74739 4.12278 8.80381 3.75744 8.61345 3.49754C8.42366 3.23708 8.05946 3.18065 7.79785 3.37101C7.13841 3.85405 6.50576 4.38895 5.91871 4.9609C5.68731 5.18575 5.68275 5.55536 5.90731 5.78619C6.02187 5.9036 6.17348 5.96259 6.32566 5.96259C6.47271 5.96259 6.61918 5.90759 6.7326 5.79702Z" fill="black"/>
<path d="M24.8561 2.61268C24.9342 2.64802 25.0157 2.66483 25.096 2.66483C25.3183 2.66483 25.5309 2.53716 25.6284 2.32144C25.7612 2.02791 25.6306 1.68195 25.3371 1.54915C24.5916 1.21174 23.8142 0.924482 23.0277 0.695361C22.7176 0.603028 22.3945 0.783134 22.3044 1.09233C22.2144 1.40182 22.3922 1.72584 22.7017 1.81589C23.4352 2.02991 24.1602 2.29778 24.8561 2.61268Z" fill="black"/>
<path d="M11.2267 2.63391C11.3059 2.63391 11.3869 2.61738 11.4644 2.5829C12.1626 2.27085 12.8892 2.00582 13.6239 1.79551C13.934 1.70688 14.1129 1.38372 14.024 1.07367C13.9357 0.763327 13.6108 0.585502 13.3025 0.673275C12.5148 0.898691 11.7362 1.18281 10.9879 1.51709C10.6938 1.64875 10.5616 1.99386 10.6932 2.28824C10.7901 2.5051 11.0033 2.63391 11.2267 2.63391Z" fill="black"/>
<path d="M2.61477 10.7127C2.69627 10.7517 2.78233 10.7702 2.86669 10.7702C3.08441 10.7702 3.29301 10.6483 3.39332 10.4391C3.72276 9.75286 4.10576 9.08174 4.53095 8.44453C4.70991 8.17637 4.63753 7.81388 4.36908 7.63491C4.1012 7.45538 3.73871 7.52862 3.55975 7.7965C3.10436 8.47901 2.69456 9.1983 2.34119 9.9341C2.20155 10.2245 2.32409 10.5733 2.61477 10.7127Z" fill="black"/>
<path d="M3.76769 27.5106C3.88111 27.6733 4.06292 27.7602 4.24702 27.7602C4.36215 27.7602 4.47899 27.7263 4.58044 27.6551C4.8449 27.4707 4.9093 27.1068 4.72521 26.8426C4.28749 26.2156 3.89023 25.5519 3.54484 24.8703C3.3995 24.583 3.05012 24.4667 2.76058 24.6135C2.47333 24.7591 2.35819 25.1105 2.5041 25.398C2.874 26.1282 3.29919 26.8389 3.76769 27.5106Z" fill="black"/>
<path d="M1.285 16.477C1.58252 16.477 1.83729 16.2505 1.86578 15.9481C1.93703 15.1861 2.06356 14.4238 2.24138 13.682C2.31662 13.3685 2.1234 13.0536 1.80993 12.9784C1.49474 12.9043 1.18184 13.0967 1.10604 13.4101C0.915672 14.2052 0.780023 15.0222 0.70308 15.8387C0.673442 16.1596 0.908833 16.4443 1.22972 16.4745C1.24852 16.4762 1.26676 16.477 1.285 16.477Z" fill="black"/>
<path d="M1.75807 22.3833C1.80709 22.3833 1.85667 22.377 1.90626 22.3639C2.21802 22.2824 2.40497 21.9635 2.32347 21.6518C2.12968 20.9123 1.98719 20.1522 1.89999 19.3933C1.86294 19.073 1.57569 18.8413 1.25366 18.8801C0.93335 18.9171 0.703659 19.2064 0.740706 19.5267C0.834178 20.3403 0.986926 21.1545 1.19382 21.947C1.26278 22.2095 1.49931 22.3833 1.75807 22.3833Z" fill="black"/>
<path d="M6.19353 29.5088C5.97466 29.745 5.98834 30.1143 6.2243 30.3335C6.51498 30.6028 6.82161 30.8687 7.1368 31.1234C7.24509 31.2109 7.37447 31.2534 7.50328 31.2534C7.67369 31.2534 7.8424 31.1793 7.95753 31.0368C8.16043 30.7863 8.12168 30.4187 7.8709 30.2161C7.57623 29.9776 7.28955 29.7293 7.01882 29.478C6.78172 29.2588 6.41296 29.2717 6.19353 29.5088Z" fill="black"/>
<path d="M8.85008 25.782C10.8218 27.8849 11.6768 29.0475 11.7517 31.5017H11.4958C10.5924 31.5017 9.85775 32.2367 9.85775 33.1398V35.5586C9.85775 36.2786 10.3275 36.8847 10.9743 37.104V41.0288C10.9743 42.1148 11.8577 42.9985 12.944 42.9985H12.9931V44.1746C12.9931 45.5619 14.1216 46.6904 15.5088 46.6904H20.7444C22.1317 46.6904 23.2602 45.5619 23.2602 44.1746V42.9985H23.3092C24.3955 42.9985 25.279 42.1148 25.279 41.0288V37.104C25.9258 36.8847 26.3955 36.2786 26.3955 35.5586V33.1398C26.3955 32.2367 25.6608 31.5017 24.7575 31.5017H24.5025C24.5875 28.9341 25.5879 27.7326 27.4351 25.7478C29.6306 23.3887 30.8394 20.3138 30.8394 17.0896C30.8394 13.5955 29.3786 10.2188 26.8315 7.82473C24.2485 5.39701 20.867 4.1776 17.3167 4.40216C10.8956 4.80084 5.67145 10.1533 5.42409 16.5872C5.29129 20.018 6.50814 23.2833 8.85008 25.782ZM22.0929 44.1746C22.0929 44.9181 21.4882 45.5231 20.7444 45.5231H15.5088C14.765 45.5231 14.1603 44.9181 14.1603 44.1746V42.9985H22.0929V44.1746ZM23.3092 41.8313H12.944C12.5018 41.8313 12.1416 41.4713 12.1416 41.0288V37.197H24.1117V41.0288C24.1117 41.4713 23.7515 41.8313 23.3092 41.8313ZM25.2282 33.1398V35.5586C25.2282 35.8183 25.0168 36.0297 24.7575 36.0297H11.4958C11.2365 36.0297 11.025 35.8183 11.025 35.5586V33.1398C11.025 32.8801 11.2365 32.669 11.4958 32.669H24.7575C25.0168 32.669 25.2282 32.8801 25.2282 33.1398ZM17.3885 5.56714C20.6185 5.37051 23.6865 6.4708 26.0319 8.67538C28.3795 10.8817 29.6722 13.8696 29.6722 17.0896C29.6722 20.0177 28.5744 22.8102 26.5802 24.9527C24.6407 27.0371 23.4266 28.5028 23.3358 31.5017H12.9177C12.8283 28.4811 11.6246 27.0347 9.70159 24.9834C7.57509 22.7148 6.46995 19.7487 6.59021 16.6322C6.81534 10.7893 11.5585 5.92906 17.3885 5.56714Z" fill="black"/>
<path d="M18.1265 21.3682C20.3471 21.3682 22.1532 19.5618 22.1532 17.3415C22.1532 15.1212 20.3471 13.3151 18.1265 13.3151C15.906 13.3151 14.0998 15.1212 14.0998 17.3415C14.0998 19.5618 15.906 21.3682 18.1265 21.3682ZM18.1265 14.4823C19.703 14.4823 20.986 15.765 20.986 17.3415C20.986 18.9183 19.703 20.201 18.1265 20.201C16.55 20.201 15.2671 18.9183 15.2671 17.3415C15.2671 15.765 16.55 14.4823 18.1265 14.4823Z" fill="black"/>
<path d="M9.90833 15.7707C10.7131 15.8624 11.3201 16.5378 11.3201 17.3415C11.3201 18.1454 10.7131 18.8208 9.90833 18.9125C9.74019 18.9319 9.58858 19.0231 9.49283 19.163C9.39708 19.303 9.36687 19.4774 9.41019 19.6412C9.82055 21.2003 10.6379 22.6198 11.7726 23.746C11.8929 23.8654 12.0622 23.9281 12.2286 23.9136C12.3979 23.9005 12.5529 23.8144 12.6538 23.6776C13.1354 23.023 14.0245 22.8335 14.7233 23.2359C15.4198 23.6377 15.7008 24.5015 15.3776 25.2447C15.3098 25.4 15.3132 25.5773 15.3867 25.7303C15.4602 25.8831 15.5965 25.9965 15.76 26.0409C16.5517 26.2558 17.3479 26.3647 18.1265 26.3647C18.905 26.3647 19.7013 26.2558 20.4929 26.0409C20.6565 25.9965 20.7927 25.8831 20.8662 25.7303C20.9398 25.5773 20.9432 25.4 20.8754 25.2447C20.5522 24.5015 20.8332 23.638 21.5297 23.2359C22.2284 22.8324 23.1176 23.023 23.5992 23.6776C23.7001 23.8144 23.8551 23.9005 24.0244 23.9136C24.1942 23.9284 24.3606 23.8654 24.4803 23.746C25.6162 22.6189 26.433 21.1995 26.8428 19.6409C26.8861 19.4771 26.8559 19.3027 26.7601 19.163C26.6644 19.0231 26.5128 18.9319 26.3446 18.9125C25.5399 18.8208 24.9329 18.1454 24.9329 17.3415C24.9329 16.5378 25.5399 15.8624 26.3446 15.7707C26.5128 15.7513 26.6644 15.6601 26.7601 15.5202C26.8559 15.3805 26.8861 15.2061 26.8428 15.0423C26.433 13.4837 25.6162 12.0643 24.4803 10.9372C24.3606 10.8178 24.1942 10.7585 24.0244 10.7696C23.8551 10.7827 23.7001 10.8688 23.5992 11.0056C23.1181 11.6602 22.2284 11.8505 21.5297 11.447C20.8332 11.0452 20.5522 10.1814 20.8754 9.4385C20.9432 9.28319 20.9398 9.10593 20.8662 8.95318C20.7927 8.80044 20.6571 8.68702 20.4935 8.64256C18.9113 8.21225 17.3417 8.21225 15.7595 8.64256C15.5959 8.68702 15.4602 8.80044 15.3867 8.95318C15.3132 9.10593 15.3098 9.28319 15.3776 9.4385C15.7008 10.1814 15.4198 11.0452 14.7233 11.447C14.0257 11.85 13.1354 11.6605 12.6538 11.0056C12.5529 10.8688 12.3979 10.7827 12.2286 10.7696C12.0627 10.7591 11.8929 10.8178 11.7726 10.9372C10.6379 12.0634 9.82055 13.4829 9.41019 15.042C9.36687 15.2059 9.39708 15.3803 9.49283 15.5202C9.58858 15.6601 9.74019 15.7513 9.90833 15.7707ZM12.1898 12.1999C13.059 12.9129 14.297 13.0406 15.3069 12.4581C16.3146 11.8762 16.8236 10.7406 16.6429 9.63371C17.6403 9.43707 18.6126 9.43707 19.6101 9.63371C19.4294 10.7406 19.9384 11.8762 20.946 12.4581C21.956 13.0406 23.1945 12.9126 24.0631 12.1999C24.7134 12.9528 25.2161 13.8269 25.5421 14.773C24.494 15.1705 23.7656 16.1785 23.7656 17.3415C23.7656 18.5045 24.494 19.5127 25.5421 19.9102C25.2161 20.8564 24.7134 21.7304 24.0631 22.4833C23.1956 21.7706 21.9571 21.6423 20.946 22.2251C19.9384 22.8067 19.4294 23.9424 19.6101 25.0495C18.6115 25.2461 17.6414 25.2461 16.6429 25.0495C16.8236 23.9424 16.3146 22.807 15.3069 22.2254C14.297 21.642 13.0585 21.7703 12.1898 22.4833C11.5395 21.731 11.0374 20.8567 10.7108 19.91C11.759 19.5127 12.4874 18.5045 12.4874 17.3415C12.4874 16.1785 11.759 15.1705 10.7108 14.773C11.0374 13.8266 11.5395 12.9523 12.1898 12.1999Z" fill="black"/>
</svg>
