<svg width="39" height="41" viewBox="0 0 39 41" fill="none" xmlns="http://www.w3.org/2000/svg">
<path d="M21.4453 19.7499C21.5221 19.7785 21.6034 19.7932 21.6853 19.7931H29.4225C29.6003 19.7931 29.7708 19.7224 29.8966 19.5967C30.0223 19.4709 30.093 19.3004 30.093 19.1226C30.093 18.9447 30.0223 18.7742 29.8966 18.6484C29.7708 18.5227 29.6003 18.4521 29.4225 18.4521H21.6853C21.6112 18.4523 21.5377 18.4647 21.4677 18.4889C21.3631 18.0688 21.1496 17.6837 20.8488 17.3724C20.5479 17.0611 20.1703 16.8346 19.7541 16.7157C19.3378 16.5969 18.8975 16.5898 18.4777 16.6954C18.0578 16.8009 17.6732 17.0152 17.3625 17.3167C17.0519 17.6182 16.8262 17.9963 16.7083 18.4128C16.5903 18.8294 16.5843 19.2696 16.6907 19.6893C16.7971 20.1089 17.0123 20.4931 17.3145 20.803C17.6167 21.113 17.9952 21.3379 18.412 21.4549C18.412 21.4797 18.408 21.5045 18.408 21.5293V29.2665C18.408 29.4443 18.4787 29.6148 18.6044 29.7406C18.7302 29.8663 18.9007 29.937 19.0785 29.937C19.2564 29.937 19.4269 29.8663 19.5526 29.7406C19.6784 29.6148 19.749 29.4443 19.749 29.2665V21.5293C19.749 21.5045 19.749 21.4797 19.745 21.4549C20.1503 21.3392 20.5192 21.1218 20.8168 20.8234C21.1143 20.5249 21.3307 20.1554 21.4453 19.7499ZM19.0745 20.2059C18.853 20.2059 18.6364 20.1402 18.4522 20.0171C18.268 19.8941 18.1244 19.7191 18.0396 19.5144C17.9549 19.3097 17.9327 19.0845 17.9759 18.8672C18.0191 18.6499 18.1258 18.4503 18.2825 18.2937C18.4391 18.137 18.6387 18.0303 18.856 17.9871C19.0733 17.9439 19.2985 17.9661 19.5032 18.0509C19.7079 18.1356 19.8828 18.2792 20.0059 18.4634C20.129 18.6476 20.1947 18.8642 20.1947 19.0858C20.1947 19.3828 20.0767 19.6678 19.8666 19.8778C19.6565 20.0879 19.3716 20.2059 19.0745 20.2059Z" fill="black"/>
<path d="M32.5509 5.58442C28.9753 2.00878 24.1257 0 19.0689 0C14.0122 0 9.16259 2.00878 5.58694 5.58442C2.01129 9.16007 0.0025177 14.0097 0.0025177 19.0664C0.0025177 24.1231 2.01129 28.9728 5.58694 32.5484C7.35353 34.3241 9.45483 35.7318 11.7692 36.6899C14.0835 37.648 16.5649 38.1375 19.0697 38.13C20.3884 38.1304 21.7035 37.9948 22.9943 37.7252C23.0823 37.709 23.1662 37.6754 23.241 37.6264C23.3158 37.5774 23.38 37.5139 23.4299 37.4396C23.4798 37.3654 23.5143 37.2819 23.5314 37.1941C23.5486 37.1063 23.548 37.016 23.5297 36.9284C23.5113 36.8408 23.4757 36.7578 23.4248 36.6843C23.3739 36.6107 23.3089 36.5481 23.2334 36.5C23.1579 36.452 23.0736 36.4195 22.9854 36.4046C22.8972 36.3896 22.8069 36.3925 22.7199 36.413C21.736 36.6177 20.7365 36.739 19.7322 36.7754V32.5252C19.7322 32.3474 19.6616 32.1768 19.5358 32.0511C19.4101 31.9253 19.2396 31.8547 19.0617 31.8547C18.8839 31.8547 18.7134 31.9253 18.5876 32.0511C18.4619 32.1768 18.3912 32.3474 18.3912 32.5252V36.7746C9.14827 36.425 1.70157 28.9695 1.35992 19.7281H5.60934C5.78717 19.7281 5.95772 19.6575 6.08346 19.5317C6.2092 19.406 6.27984 19.2354 6.27984 19.0576C6.27984 18.8798 6.2092 18.7092 6.08346 18.5835C5.95772 18.4578 5.78717 18.3871 5.60934 18.3871H1.35992C1.70717 9.14735 9.16507 1.69665 18.4072 1.355V5.60523C18.4072 5.78305 18.4779 5.9536 18.6036 6.07934C18.7294 6.20508 18.8999 6.27572 19.0777 6.27572C19.2556 6.27572 19.4261 6.20508 19.5518 6.07934C19.6776 5.9536 19.7482 5.78305 19.7482 5.60523V1.3558C28.9912 1.70545 36.4379 9.16095 36.7795 18.4031H32.5301C32.3523 18.4031 32.1817 18.4738 32.056 18.5995C31.9303 18.7252 31.8596 18.8958 31.8596 19.0736C31.8596 19.2514 31.9303 19.422 32.056 19.5477C32.1817 19.6735 32.3523 19.7441 32.5301 19.7441H36.7795C36.7409 20.7801 36.6121 21.8109 36.3947 22.8246C36.374 22.9114 36.3708 23.0015 36.3854 23.0896C36.4 23.1777 36.4321 23.2619 36.4797 23.3375C36.5272 23.413 36.5894 23.4783 36.6626 23.5294C36.7358 23.5806 36.8184 23.6167 36.9057 23.6355C36.9929 23.6543 37.0831 23.6555 37.1708 23.639C37.2586 23.6225 37.3421 23.5886 37.4166 23.5394C37.4911 23.4902 37.555 23.4266 37.6046 23.3523C37.6541 23.2781 37.6884 23.1947 37.7053 23.107C37.9912 21.7792 38.1352 20.4247 38.1349 19.0664C38.1419 16.5616 37.6519 14.0803 36.6934 11.7661C35.7349 9.45189 34.3269 7.3508 32.5509 5.58442Z" fill="black"/>
<path d="M12.7104 6.70944L11.9543 5.39965C11.8653 5.24559 11.7189 5.13316 11.5471 5.08709C11.3753 5.04103 11.1922 5.0651 11.0381 5.15401C10.8841 5.24293 10.7716 5.3894 10.7256 5.56121C10.6795 5.73301 10.7036 5.91609 10.7925 6.07015L11.5486 7.37994C11.5916 7.45821 11.6497 7.5271 11.7196 7.58259C11.7896 7.63808 11.8699 7.67905 11.9559 7.70308C12.0419 7.72711 12.1318 7.73373 12.2204 7.72255C12.3089 7.71136 12.3944 7.6826 12.4717 7.63795C12.549 7.5933 12.6166 7.53366 12.6706 7.46253C12.7245 7.3914 12.7638 7.3102 12.7859 7.22372C12.8081 7.13723 12.8127 7.04719 12.7996 6.95888C12.7865 6.87057 12.7559 6.78576 12.7096 6.70944H12.7104Z" fill="black"/>
<path d="M7.388 11.5446L6.0782 10.7885C6.00188 10.7422 5.91708 10.7115 5.82876 10.6984C5.74045 10.6853 5.65041 10.69 5.56392 10.7121C5.47744 10.7343 5.39625 10.7735 5.32511 10.8274C5.25398 10.8814 5.19434 10.949 5.14969 11.0263C5.10504 11.1036 5.07628 11.1891 5.0651 11.2777C5.05391 11.3662 5.06053 11.4562 5.08456 11.5421C5.1086 11.6281 5.14956 11.7085 5.20505 11.7784C5.26054 11.8483 5.32944 11.9065 5.4077 11.9494L6.7175 12.7064C6.87156 12.7953 7.05463 12.8193 7.22644 12.7733C7.39825 12.7272 7.54472 12.6148 7.63363 12.4607C7.72254 12.3067 7.74662 12.1236 7.70055 11.9518C7.65449 11.78 7.54206 11.6335 7.388 11.5446Z" fill="black"/>
<path d="M31.0906 12.796C31.208 12.796 31.3234 12.7651 31.4251 12.7064L32.7348 11.9494C32.8131 11.9065 32.882 11.8483 32.9375 11.7784C32.993 11.7085 33.034 11.6281 33.058 11.5421C33.082 11.4562 33.0886 11.3662 33.0775 11.2777C33.0663 11.1891 33.0375 11.1036 32.9929 11.0263C32.9482 10.949 32.8886 10.8814 32.8174 10.8274C32.7463 10.7735 32.6651 10.7343 32.5786 10.7121C32.4921 10.69 32.4021 10.6853 32.3138 10.6984C32.2255 10.7115 32.1407 10.7422 32.0643 10.7885L30.7514 11.5446C30.6234 11.6184 30.5233 11.7324 30.4668 11.8689C30.4102 12.0053 30.4004 12.1567 30.4387 12.2994C30.477 12.4421 30.5614 12.5681 30.6787 12.6579C30.796 12.7477 30.9397 12.7962 31.0874 12.796H31.0906Z" fill="black"/>
<path d="M6.71423 25.4243L5.40444 26.1812C5.32617 26.2241 5.25727 26.2823 5.20178 26.3522C5.14629 26.4222 5.10533 26.5025 5.0813 26.5885C5.05727 26.6745 5.05065 26.7644 5.06183 26.853C5.07301 26.9415 5.10177 27.027 5.14643 27.1043C5.19108 27.1816 5.25072 27.2492 5.32185 27.3032C5.39298 27.3571 5.47417 27.3963 5.56066 27.4185C5.64715 27.4407 5.73719 27.4453 5.8255 27.4322C5.91381 27.4191 5.99861 27.3885 6.07494 27.3422L7.38793 26.586C7.46421 26.542 7.53108 26.4834 7.58471 26.4135C7.63833 26.3437 7.67768 26.2639 7.70049 26.1789C7.7233 26.0938 7.72913 26.005 7.71764 25.9177C7.70616 25.8304 7.67759 25.7462 7.63357 25.6699C7.58954 25.5936 7.53092 25.5268 7.46105 25.4731C7.39119 25.4195 7.31144 25.3802 7.22637 25.3574C7.1413 25.3345 7.05257 25.3287 6.96525 25.3402C6.87792 25.3517 6.79371 25.3802 6.71743 25.4243H6.71423Z" fill="black"/>
<path d="M26.0091 7.71519C26.127 7.71553 26.2429 7.6847 26.3451 7.62583C26.4472 7.56696 26.532 7.48213 26.5908 7.37994L27.3477 6.07015C27.4366 5.91609 27.4607 5.73301 27.4146 5.56121C27.3686 5.3894 27.2561 5.24293 27.1021 5.15401C26.948 5.0651 26.7649 5.04103 26.5931 5.08709C26.4213 5.13316 26.2749 5.24559 26.1859 5.39965L25.4298 6.70944C25.371 6.81133 25.34 6.9269 25.34 7.04454C25.34 7.16219 25.3709 7.27778 25.4297 7.37969C25.4885 7.4816 25.573 7.56625 25.6749 7.62514C25.7767 7.68403 25.8923 7.71509 26.0099 7.71519H26.0091Z" fill="black"/>
<path d="M12.4647 30.5048C12.3885 30.4607 12.3043 30.432 12.2169 30.4205C12.1296 30.4089 12.0408 30.4147 11.9557 30.4375C11.8706 30.4603 11.7908 30.4997 11.7209 30.5534C11.6511 30.6071 11.5925 30.6741 11.5486 30.7505L10.7917 32.0603C10.7028 32.2143 10.6787 32.3974 10.7248 32.5692C10.7708 32.741 10.8833 32.8875 11.0373 32.9764C11.1914 33.0653 11.3744 33.0894 11.5463 33.0433C11.7181 32.9973 11.8645 32.8848 11.9534 32.7308L12.7096 31.421C12.7536 31.3447 12.7823 31.2606 12.7938 31.1733C12.8054 31.086 12.7996 30.9973 12.7769 30.9122C12.7542 30.8271 12.7149 30.7474 12.6613 30.6775C12.6078 30.6076 12.541 30.5489 12.4647 30.5048Z" fill="black"/>
<path d="M36.7004 32.4853H34.212V23.3152C34.2118 23.1188 34.1336 22.9306 33.9947 22.7918C33.8558 22.653 33.6675 22.5751 33.4711 22.5751H27.2902C27.0939 22.5753 26.9057 22.6533 26.7668 22.792C26.6279 22.9308 26.5497 23.1189 26.5493 23.3152V32.4853H24.0609C23.9177 32.4855 23.7776 32.5271 23.6575 32.6052C23.5375 32.6833 23.4426 32.7945 23.3845 32.9254C23.3263 33.0562 23.3074 33.2012 23.3298 33.3426C23.3523 33.4841 23.4153 33.6159 23.5112 33.7223L29.8322 40.7217C29.9016 40.7987 29.9864 40.8602 30.0811 40.9024C30.1757 40.9446 30.2782 40.9664 30.3818 40.9666C30.4854 40.9664 30.5878 40.9447 30.6825 40.9026C30.7771 40.8606 30.862 40.7993 30.9315 40.7225L37.2525 33.7223C37.3485 33.6158 37.4115 33.4837 37.4339 33.342C37.4564 33.2004 37.4372 33.0552 37.3787 32.9243C37.3203 32.7933 37.2251 32.6821 37.1046 32.6042C36.9842 32.5263 36.8438 32.485 36.7004 32.4853ZM30.3794 39.3295L25.4107 33.8271H27.8911V23.9161H32.871V33.8271H35.3514L30.3794 39.3295Z" fill="black"/>
</svg>
